# xmcd
#
# Track frame offsets:
#	182
#	11310
#	23457
#	34795
#	46327
#	58492
#	75277
#	88055
#	100195
#	111550
#	124537
#	131375
#	143660
#	157225
#	170257
#	177580
#	187835
#	199062
#	207127
#	218660
#	235495
#	249137
#	260332
#	273065
#	285692
#	293237
#
# Disc length: 4079 seconds
#
# Revision: 1
# Processed by: cddbd v1.5PL3 Copyright (c) Steve Scherf et al.
# Submitted via: EasyCDDAExtractor 6.5.9.5
#
DISCID=660fed1a
DTITLE=The Prisonaires - Just Walkin' In The Rain
DYEAR=1900
DGENRE=Blues
TTITLE0=Baby Please
TTITLE1=Just Walkin' In The Rain
TTITLE2=My God Is Real
TTITLE3=Softly And Tenderly
TTITLE4=A Prisoner' Prayer
TTITLE5=I Know
TTITLE6=No More Tears
TTITLE7=I Wish
TTITLE8=Don't Say Tomorrow
TTITLE9=There's Love In You
TTITLE10=Wath'll Do You Next?
TTITLE11=Surleen
TTITLE12=Wath About Frank Clement
TTITLE13=Two Strangers
TTITLE14=I I Were A King
TTITLE15=All Alone And Lonely
TTITLE16=Rocking Horse
TTITLE17=That Chic's Too Young To Fry
TTITLE18=Lucille I Want You
TTITLE19=I Know
TTITLE20=Friends Call Me A Fool
TTITLE21=Dreaming Of You
TTITLE22=Just Walkin' In The Rain (Alternate take)
TTITLE23=No More Tears
TTITLE24=Wath'll Do You Next?
TTITLE25=Baby Please
EXTD=
EXTT0=
EXTT1=
EXTT2=
EXTT3=
EXTT4=
EXTT5=
EXTT6=
EXTT7=
EXTT8=
EXTT9=
EXTT10=
EXTT11=
EXTT12=
EXTT13=
EXTT14=
EXTT15=
EXTT16=
EXTT17=
EXTT18=
EXTT19=
EXTT20=
EXTT21=
EXTT22=
EXTT23=
EXTT24=
EXTT25=
PLAYORDER=
